<svg width="406" height="156" viewBox="0 0 406 156" fill="none" xmlns="http://www.w3.org/2000/svg">
<path d="M83.7617 141.28C83.7617 143.335 82.0963 145 80.0418 145L53.3846 145C51.3301 145 49.6647 143.335 49.6647 141.28V83.1151C49.6647 81.0607 47.9992 79.3952 45.9448 79.3952H3.72019C1.66575 79.3952 0.00029695 77.7298 0.00029695 75.6753V50.6554C0.00029695 48.601 1.66575 46.9355 3.72019 46.9355H80.0418C82.0963 46.9355 83.7617 48.601 83.7617 50.6554V141.28Z" fill="#f1ede4"/>
<path d="M70.3307 37.4301C70.3307 36.324 70.8229 35.2754 71.6736 34.5687L112.254 0.858485C112.922 0.303699 113.763 0 114.631 0H163.264C166.786 0 168.336 4.44049 165.578 6.63205L110.953 50.0472C110.065 50.7529 109.547 51.8251 109.547 52.9593V119.717C109.547 121.772 107.882 123.437 105.827 123.437H74.0506C71.9962 123.437 70.3307 121.772 70.3307 119.717V37.4301Z" fill="#f1ede4"/>
<path d="M137.948 58.775V52.3509H168.225V58.775H156.904V90H149.269V58.775H137.948ZM172.086 90V52.3509H199.783V58.775H179.721V67.1999H197.308V73.466H179.721V83.6286H199.941V90H172.086ZM220.398 90.7898C215.097 90.7898 210.744 88.9644 207.339 85.3136C203.969 81.6277 202.284 76.9589 202.284 71.3071C202.284 65.6203 203.934 60.9163 207.234 57.1953C210.533 53.4743 214.904 51.6137 220.345 51.6137C224.838 51.6137 228.437 52.8073 231.14 55.1944C233.878 57.5463 235.457 60.5828 235.879 64.3038H228.296C227.945 62.3731 227.067 60.8461 225.663 59.7228C224.294 58.5994 222.522 58.0378 220.345 58.0378C217.01 58.0378 214.465 59.2664 212.71 61.7237C210.955 64.181 210.077 67.3755 210.077 71.3071C210.077 75.2037 211.007 78.3806 212.868 80.8378C214.764 83.2951 217.273 84.5238 220.398 84.5238C222.609 84.5238 224.452 83.927 225.927 82.7335C227.401 81.5048 228.261 79.89 228.507 77.8891H235.984C235.773 81.4346 234.387 84.4009 231.824 86.788C228.981 89.4559 225.172 90.7898 220.398 90.7898ZM239.912 90V52.3509H247.547V67.0946H262.343V52.3509H269.978V90H262.343V73.4133H247.547V90H239.912ZM285.599 90V75.4669L273.067 52.3509H281.387L287.074 63.514L289.549 68.8849H289.654C290.602 66.8138 291.444 65.0235 292.181 63.514L297.763 52.3509H305.767L293.235 75.4669V90H285.599ZM301.4 90L314.511 52.3509H322.409L335.679 90H327.728L325.2 81.9963H311.615L309.14 90H301.4ZM316.775 65.3043L313.405 76.1515H323.357L319.987 65.3043L318.46 59.5121H318.355C317.723 62.0396 317.196 63.9704 316.775 65.3043ZM338.847 90V52.3509H356.119C359.734 52.3509 362.648 53.3163 364.86 55.247C367.106 57.1777 368.23 59.7052 368.23 62.8295C368.23 67.6387 365.93 70.6752 361.332 71.939V72.0969C363.122 72.6235 364.456 73.466 365.333 74.6244C366.246 75.7478 366.825 77.4328 367.071 79.6794C367.141 80.5219 367.212 81.5224 367.282 82.6808C367.387 83.8041 367.457 84.6993 367.492 85.3663C367.563 86.0332 367.633 86.7002 367.703 87.3672C367.808 88.0342 367.931 88.5607 368.072 88.9469C368.247 89.2979 368.458 89.5261 368.703 89.6314V90H361.384C361.244 89.9298 361.121 89.8069 361.016 89.6314C360.91 89.4208 360.823 89.14 360.752 88.7889C360.682 88.4379 360.612 88.0868 360.542 87.7358C360.507 87.3496 360.454 86.8757 360.384 86.3141C360.349 85.7173 360.314 85.2083 360.278 84.7871C360.243 84.3307 360.191 83.7515 360.121 83.0494C360.085 82.3122 360.05 81.733 360.015 81.3118C359.699 77.0291 357.242 74.8877 352.643 74.8877H346.483V90H338.847ZM346.483 58.5117V68.9902H354.592C356.593 68.9902 358.12 68.5163 359.173 67.5685C360.261 66.6207 360.805 65.3745 360.805 63.8299C360.805 62.2503 360.296 60.969 359.278 59.9861C358.26 59.0031 356.768 58.5117 354.802 58.5117H346.483ZM373.146 90V52.3509H387.837C392.822 52.3509 396.824 54.1588 399.843 57.7745C402.861 61.3551 404.371 65.9537 404.371 71.5704C404.371 78.0646 402.37 82.9967 398.368 86.3667C395.455 88.7889 391.733 90 387.205 90H373.146ZM380.781 83.418H386.679C390.154 83.418 392.681 82.4175 394.261 80.4166C395.841 78.3806 396.63 75.4318 396.63 71.5704C396.63 67.7089 395.788 64.6373 394.103 62.3556C392.453 60.0387 390.048 58.8803 386.889 58.8803H380.781V83.418ZM161.387 145.685C156.823 145.685 153.278 144.526 150.75 142.209C148.258 139.892 146.906 136.856 146.696 133.1H149.486C149.627 136.259 150.75 138.751 152.856 140.577C154.998 142.367 157.824 143.262 161.334 143.262C164.283 143.262 166.705 142.508 168.601 140.998C170.496 139.489 171.444 137.435 171.444 134.837C171.444 132.205 170.637 130.362 169.022 129.308C167.407 128.22 164.265 127.237 159.596 126.36C155.7 125.658 152.804 124.587 150.908 123.148C149.013 121.708 148.065 119.514 148.065 116.566C148.065 113.617 149.206 111.23 151.487 109.405C153.804 107.544 156.823 106.614 160.544 106.614C164.265 106.614 167.214 107.579 169.39 109.51C171.602 111.405 172.848 113.933 173.129 117.092H170.391C170.145 114.53 169.127 112.546 167.337 111.142C165.547 109.738 163.3 109.036 160.597 109.036C157.578 109.036 155.191 109.738 153.436 111.142C151.716 112.511 150.856 114.302 150.856 116.513C150.856 118.725 151.61 120.357 153.12 121.41C154.664 122.428 157.385 123.288 161.281 123.99C162.966 124.306 164.371 124.622 165.494 124.938C166.617 125.219 167.776 125.64 168.969 126.202C170.198 126.728 171.163 127.343 171.865 128.045C172.567 128.747 173.147 129.66 173.603 130.783C174.059 131.871 174.287 133.152 174.287 134.627C174.287 137.856 173.094 140.507 170.707 142.578C168.355 144.649 165.248 145.685 161.387 145.685ZM187.564 145V128.255L173.979 107.351H176.98L188.933 125.781H189.038L200.991 107.351H203.94L190.302 128.361V145H187.564ZM218.259 145.685C213.696 145.685 210.15 144.526 207.623 142.209C205.13 139.892 203.779 136.856 203.568 133.1H206.359C206.5 136.259 207.623 138.751 209.729 140.577C211.87 142.367 214.696 143.262 218.207 143.262C221.155 143.262 223.578 142.508 225.473 140.998C227.369 139.489 228.317 137.435 228.317 134.837C228.317 132.205 227.509 130.362 225.895 129.308C224.28 128.22 221.138 127.237 216.469 126.36C212.573 125.658 209.676 124.587 207.781 123.148C205.885 121.708 204.937 119.514 204.937 116.566C204.937 113.617 206.078 111.23 208.36 109.405C210.677 107.544 213.696 106.614 217.417 106.614C221.138 106.614 224.087 107.579 226.263 109.51C228.475 111.405 229.721 113.933 230.002 117.092H227.264C227.018 114.53 226 112.546 224.21 111.142C222.419 109.738 220.173 109.036 217.47 109.036C214.451 109.036 212.064 109.738 210.308 111.142C208.588 112.511 207.728 114.302 207.728 116.513C207.728 118.725 208.483 120.357 209.992 121.41C211.537 122.428 214.258 123.288 218.154 123.99C219.839 124.306 221.243 124.622 222.367 124.938C223.49 125.219 224.648 125.64 225.842 126.202C227.07 126.728 228.036 127.343 228.738 128.045C229.44 128.747 230.019 129.66 230.476 130.783C230.932 131.871 231.16 133.152 231.16 134.627C231.16 137.856 229.967 140.507 227.58 142.578C225.228 144.649 222.121 145.685 218.259 145.685ZM231.74 109.826V107.351H260.174V109.826H247.326V145H244.588V109.826H231.74ZM264.346 145V107.351H289.305V109.773H267.084V124.411H287.514V126.781H267.084V142.473H289.831V145H264.346ZM294.993 145V107.351H298.942L312.475 141.261H312.58L325.692 107.351H329.799V145H327.113V110.984H327.008C326.341 112.985 325.709 114.758 325.112 116.302L313.844 145H311.106L299.627 116.302L297.731 110.984H297.626V145H294.993ZM348.974 145.685C344.41 145.685 340.865 144.526 338.337 142.209C335.845 139.892 334.493 136.856 334.283 133.1H337.074C337.214 136.259 338.337 138.751 340.444 140.577C342.585 142.367 345.411 143.262 348.921 143.262C351.87 143.262 354.292 142.508 356.188 140.998C358.083 139.489 359.031 137.435 359.031 134.837C359.031 132.205 358.224 130.362 356.609 129.308C354.994 128.22 351.852 127.237 347.184 126.36C343.287 125.658 340.391 124.587 338.495 123.148C336.6 121.708 335.652 119.514 335.652 116.566C335.652 113.617 336.793 111.23 339.075 109.405C341.391 107.544 344.41 106.614 348.131 106.614C351.852 106.614 354.801 107.579 356.978 109.51C359.189 111.405 360.435 113.933 360.716 117.092H357.978C357.732 114.53 356.714 112.546 354.924 111.142C353.134 109.738 350.887 109.036 348.184 109.036C345.165 109.036 342.778 109.738 341.023 111.142C339.303 112.511 338.443 114.302 338.443 116.513C338.443 118.725 339.197 120.357 340.707 121.41C342.251 122.428 344.972 123.288 348.869 123.99C350.554 124.306 351.958 124.622 353.081 124.938C354.204 125.219 355.363 125.64 356.556 126.202C357.785 126.728 358.75 127.343 359.452 128.045C360.155 128.747 360.734 129.66 361.19 130.783C361.646 131.871 361.875 133.152 361.875 134.627C361.875 137.856 360.681 140.507 358.294 142.578C355.942 144.649 352.835 145.685 348.974 145.685Z" fill="#f1ede4"/>
</svg>
