<svg width="64" height="64" viewBox="0 0 64 64" fill="none" xmlns="http://www.w3.org/2000/svg">
  <rect width="64" height="64" rx="12" fill="#f1ede4"/>
  <g transform="translate(11 12) scale(0.24)">
    <path d="M83.7617 141.28C83.7617 143.335 82.0963 145 80.0418 145L53.3846 145C51.3301 145 49.6647 143.335 49.6647 141.28V83.1151C49.6647 81.0607 47.9992 79.3952 45.9448 79.3952H3.72019C1.66575 79.3952 0.00029695 77.7298 0.00029695 75.6753V50.6554C0.00029695 48.601 1.66575 46.9355 3.72019 46.9355H80.0418C82.0963 46.9355 83.7617 48.601 83.7617 50.6554V141.28Z" fill="url(#ty-icon-a)"/>
    <path d="M70.3307 37.4301C70.3307 36.324 70.8229 35.2754 71.6736 34.5687L112.254 0.858485C112.922 0.303699 113.763 0 114.631 0H163.264C166.786 0 168.336 4.44049 165.578 6.63205L110.953 50.0472C110.065 50.7529 109.547 51.8251 109.547 52.9593V119.717C109.547 121.772 107.882 123.437 105.827 123.437H74.0506C71.9962 123.437 70.3307 121.772 70.3307 119.717V37.4301Z" fill="url(#ty-icon-b)"/>
  </g>
  <defs>
    <linearGradient id="ty-icon-a" x1="0" y1="88" x2="90" y2="90" gradientUnits="userSpaceOnUse">
      <stop stop-color="#4a6152"/>
      <stop offset="1" stop-color="#1a1d18"/>
    </linearGradient>
    <linearGradient id="ty-icon-b" x1="153" y1="4" x2="80" y2="120" gradientUnits="userSpaceOnUse">
      <stop stop-color="#1a1d18"/>
      <stop offset="1" stop-color="#4a6152"/>
    </linearGradient>
  </defs>
</svg>
